<svg xmlns="http://www.w3.org/2000/svg" viewBox="0 0 288 288"><defs><style>.cls-1{fill:#356ae6;}.cls-2{fill:#fff;}</style></defs><title>Artboard 1</title><g id="Layer_2" data-name="Layer 2"><rect id="Rectangle" class="cls-1" x="-0.18" width="288" height="288"/></g><g id="Layer_1" data-name="Layer 1"><path class="cls-2" d="M146.56,150.7c2.6,0,5.21-1,8-3.07,3.27-2.28,6.2-4.24,6.21-4.24l1-.67-1-.68c-.44-.31-43.94-30.5-48.45-33.39a6.06,6.06,0,0,0-6.36-.86,5.44,5.44,0,0,0-2.8,5.12v10.25l.35.25c.31.2,30.2,21,36,24.89A12.53,12.53,0,0,0,146.56,150.7Z"/><path class="cls-2" d="M204.89,132.64c-2.61-1.95-95.93-67-99.9-69.76L103.7,62V78c0,5.09,2.66,7,6,9.45,0,0,71.59,49.89,80.46,56-8.94,6.19-76.3,52.9-80.55,55.63-5.1,3.4-5.61,5.6-5.61,10.18v17.16l100.84-72.16h0A12.77,12.77,0,0,0,210.45,144v-1.85C210.45,138.42,208.57,135.22,204.89,132.64Z"/></g></svg>