<svg xmlns="http://www.w3.org/2000/svg" viewBox="0 0 34 34"><defs><style>.cls-1{fill:#ffa800;}.cls-2{fill:#fff;}</style></defs><title>Fw_CRM_dew_1</title><g id="Layer_2" data-name="Layer 2"><g id="Layer_1-2" data-name="Layer 1"><path class="cls-1" d="M17,34h0A17,17,0,0,1,0,17H0A17,17,0,0,1,17,0H29.75A4.25,4.25,0,0,1,34,4.25V17A17,17,0,0,1,17,34Z"/><circle class="cls-2" cx="16.98" cy="22.95" r="1.98"/><path class="cls-2" d="M17,8.79a8,8,0,0,0-5,14.33c0-.06,0-.11,0-.17a5,5,0,0,1,1.77-3.79A3.88,3.88,0,0,1,13,16.84a4,4,0,1,1,7.21,2.32A5,5,0,0,1,22,23c0,.06,0,.11,0,.17A8,8,0,0,0,17,8.79Z"/></g></g></svg>