<svg xmlns="http://www.w3.org/2000/svg" viewBox="0 0 512 512"><g fill="none" fill-rule="evenodd"><path fill="#3D4145" d="M0 0h512v511.98H0z"/><path fill="#FFF" d="M293.444 61c-42.798 0-67.507 20.08-79.472 33.344C212.562 82.931 205.069 69 175.667 69H104v64h33.958c4.431 0 6.042 2.441 6.042 6.871V445h80V321.92c11.853 10.927 31.413 25.955 66.85 25.955 74.417 0 122.99-58.979 122.99-143.434C413.84 118.645 366.883 61 293.444 61zm-14.459 67.337c35.945 0 60.084 30.996 60.084 77.139 0 52.576-30.695 76.101-61.125 76.101-40.923 0-59.569-39.173-59.569-75.584 0-57.257 31.312-77.656 60.61-77.656z"/></g></svg>